<svg xmlns="http://www.w3.org/2000/svg" xmlns:xlink="http://www.w3.org/1999/xlink" viewBox="0 0 258.8 258.8"><defs><radialGradient id="a" cx="75.07" cy="-150.46" r="261.11" gradientTransform="matrix(1, 0, 0, -1, 0, 107.8)" gradientUnits="userSpaceOnUse"><stop offset="0" stop-color="#ffd776"/><stop offset="0.25" stop-color="#f3a554"/><stop offset="0.38" stop-color="#f15c3c"/><stop offset="0.54" stop-color="#d94867"/><stop offset="0.7" stop-color="#c32f87"/><stop offset="0.91" stop-color="#7d63a7"/><stop offset="0.99" stop-color="#5c6cb3"/></radialGradient><radialGradient id="b" cx="101.45" cy="-87.77" r="134.08" gradientTransform="matrix(1, 0, 0, -1, 0, 107.8)" gradientUnits="userSpaceOnUse"><stop offset="0" stop-color="#ffd776"/><stop offset="0.25" stop-color="#f3a554"/><stop offset="0.38" stop-color="#f15c3c"/><stop offset="0.61" stop-color="#d94867"/><stop offset="0.83" stop-color="#c32f87"/><stop offset="0.96" stop-color="#7d63a7"/><stop offset="1" stop-color="#5c6cb3"/></radialGradient><radialGradient id="c" cx="191.92" cy="32.07" r="31.33" gradientTransform="matrix(1, 0, 0, -1, 0, 107.8)" gradientUnits="userSpaceOnUse"><stop offset="0" stop-color="#5f6db3"/><stop offset="1" stop-color="#5c6cb3"/></radialGradient></defs><title>Asset 1</title><path d="M252,44.6a63.24,63.24,0,0,0-14.9-22.9A63.24,63.24,0,0,0,214.2,6.8c-8.2-3.2-17.7-5.4-31.4-6S164.6,0,129.4,0,89.8.1,76,.8s-23.2,2.8-31.4,6A63.24,63.24,0,0,0,21.7,21.7,63.24,63.24,0,0,0,6.8,44.6C3.6,52.8,1.4,62.3.8,76S0,94.2,0,129.4s.1,39.6.8,53.4,2.8,23.2,6,31.4a63.24,63.24,0,0,0,14.9,22.9A63.24,63.24,0,0,0,44.6,252c8.2,3.2,17.7,5.4,31.4,6s18.2.8,53.4.8,39.6-.1,53.4-.8,23.2-2.8,31.4-6A66,66,0,0,0,252,214.2c3.2-8.2,5.4-17.7,6-31.4s.8-18.2.8-53.4-.1-39.6-.8-53.4S255.2,52.8,252,44.6ZM234.7,181.7c-.6,12.6-2.7,19.5-4.5,24a40.08,40.08,0,0,1-9.7,14.9,40.51,40.51,0,0,1-14.9,9.7c-4.6,1.8-11.4,3.9-24,4.5-13.7.6-17.7.8-52.3.8s-38.7-.1-52.3-.8c-12.6-.6-19.5-2.7-24-4.5a40.08,40.08,0,0,1-14.9-9.7,40.51,40.51,0,0,1-9.7-14.9c-1.8-4.6-3.9-11.4-4.5-24-.6-13.7-.8-17.8-.8-52.3s.1-38.7.8-52.3c.6-12.6,2.7-19.5,4.5-24a40.08,40.08,0,0,1,9.7-14.9A40.51,40.51,0,0,1,53,28.5c4.6-1.8,11.4-3.9,24-4.5,13.7-.6,17.8-.8,52.3-.8s38.7.1,52.3.8c12.6.6,19.5,2.7,24,4.5a40.08,40.08,0,0,1,14.9,9.7,40.51,40.51,0,0,1,9.7,14.9c1.8,4.6,3.9,11.4,4.5,24,.6,13.7.8,17.8.8,52.3S235.3,168.1,234.7,181.7Z" style="fill:url(#a)"/><path d="M129.3,62.9a66.5,66.5,0,1,0,66.5,66.5A66.53,66.53,0,0,0,129.3,62.9Zm0,109.7a43.2,43.2,0,1,1,43.2-43.2A43.21,43.21,0,0,1,129.3,172.6Z" style="fill:url(#b)"/><circle cx="198.4" cy="60.3" r="15.5" style="fill:url(#c)"/></svg>