<svg xmlns="http://www.w3.org/2000/svg" viewBox="0 0 400 400"><title>Asset 1</title><path d="M0,0V400H400V0ZM299.4,149.1c.1,2.2.1,4.4.1,6.6,0,67.7-51.6,145.9-145.9,145.9a145.86,145.86,0,0,1-78.5-22.9,98.68,98.68,0,0,0,12.2.7,102.85,102.85,0,0,0,63.7-22,51.28,51.28,0,0,1-47.9-35.6,51.58,51.58,0,0,0,23.1-.9,51.39,51.39,0,0,1-41.1-50.3v-.7a51.87,51.87,0,0,0,23.2,6.4,51.48,51.48,0,0,1-15.9-68.5,145.61,145.61,0,0,0,105.7,53.6,56.67,56.67,0,0,1-1.3-11.7,51.29,51.29,0,0,1,88.7-35.1,102,102,0,0,0,32.6-12.4,51.59,51.59,0,0,1-22.6,28.4,103.93,103.93,0,0,0,29.5-8.1A104.47,104.47,0,0,1,299.4,149.1Z" style="fill:#1da1f2"/></svg>